<?xml version="1.0" encoding="UTF-8"?>
<mxfile host="app.diagrams.net" modified="2024-03-24T16:00:00.000Z" agent="AI Assistant" version="21.1.1">
  <diagram id="location-tracking-flowchart" name="Location Tracking Process">
    <mxGraphModel dx="1200" dy="800" grid="1" gridSize="10" guides="1" tooltips="1" connect="1" arrows="1" fold="1" page="1" pageScale="1" pageWidth="850" pageHeight="1100">
      <root>
        <mxCell id="0"/>
        <mxCell id="1" parent="0"/>
        
        <!-- Start Node -->
        <mxCell id="2" value="Start" style="ellipse;whiteSpace=wrap;html=1;fillColor=#d5e8d4;strokeColor=#82b366;" vertex="1" parent="1">
          <mxGeometry x="375" y="20" width="100" height="60" as="geometry"/>
        </mxCell>
        
        <!-- Enforcer Login -->
        <mxCell id="3" value="Enforcer logs in" style="rounded=1;whiteSpace=wrap;html=1;fillColor=#dae8fc;strokeColor=#6c8ebf;" vertex="1" parent="1">
          <mxGeometry x="365" y="120" width="120" height="60" as="geometry"/>
        </mxCell>
        
        <!-- Toggle Active Duty -->
        <mxCell id="4" value="Toggle active duty status" style="rounded=1;whiteSpace=wrap;html=1;fillColor=#dae8fc;strokeColor=#6c8ebf;" vertex="1" parent="1">
          <mxGeometry x="365" y="220" width="120" height="60" as="geometry"/>
        </mxCell>
        
        <!-- Check if Active -->
        <mxCell id="5" value="Active Duty?" style="rhombus;whiteSpace=wrap;html=1;fillColor=#fff2cc;strokeColor=#d6b656;" vertex="1" parent="1">
          <mxGeometry x="375" y="320" width="100" height="100" as="geometry"/>
        </mxCell>
        
        <!-- Location Sharing Off -->
        <mxCell id="6" value="Location tracking disabled" style="rounded=1;whiteSpace=wrap;html=1;fillColor=#f8cecc;strokeColor=#b85450;" vertex="1" parent="1">
          <mxGeometry x="160" y="340" width="120" height="60" as="geometry"/>
        </mxCell>
        
        <!-- Request Location Permission -->
        <mxCell id="7" value="Request location permission" style="rounded=1;whiteSpace=wrap;html=1;fillColor=#dae8fc;strokeColor=#6c8ebf;" vertex="1" parent="1">
          <mxGeometry x="365" y="460" width="120" height="60" as="geometry"/>
        </mxCell>
        
        <!-- Permission Granted? -->
        <mxCell id="8" value="Permission granted?" style="rhombus;whiteSpace=wrap;html=1;fillColor=#fff2cc;strokeColor=#d6b656;" vertex="1" parent="1">
          <mxGeometry x="375" y="560" width="100" height="100" as="geometry"/>
        </mxCell>
        
        <!-- Permission Denied -->
        <mxCell id="9" value="Show error message" style="rounded=1;whiteSpace=wrap;html=1;fillColor=#f8cecc;strokeColor=#b85450;" vertex="1" parent="1">
          <mxGeometry x="160" y="580" width="120" height="60" as="geometry"/>
        </mxCell>
        
        <!-- Start Location Tracking -->
        <mxCell id="10" value="Start location tracking" style="rounded=1;whiteSpace=wrap;html=1;fillColor=#dae8fc;strokeColor=#6c8ebf;" vertex="1" parent="1">
          <mxGeometry x="365" y="700" width="120" height="60" as="geometry"/>
        </mxCell>
        
        <!-- Collect Location Data -->
        <mxCell id="11" value="Collect location data (coordinates, speed, heading)" style="rounded=1;whiteSpace=wrap;html=1;fillColor=#dae8fc;strokeColor=#6c8ebf;" vertex="1" parent="1">
          <mxGeometry x="320" y="800" width="210" height="60" as="geometry"/>
        </mxCell>
        
        <!-- Send to Server -->
        <mxCell id="12" value="Send location data to server" style="rounded=1;whiteSpace=wrap;html=1;fillColor=#dae8fc;strokeColor=#6c8ebf;" vertex="1" parent="1">
          <mxGeometry x="365" y="900" width="120" height="60" as="geometry"/>
        </mxCell>
        
        <!-- Store in Database -->
        <mxCell id="13" value="Store location data in database" style="rounded=1;whiteSpace=wrap;html=1;fillColor=#dae8fc;strokeColor=#6c8ebf;" vertex="1" parent="1">
          <mxGeometry x="365" y="1000" width="120" height="60" as="geometry"/>
        </mxCell>
        
        <!-- Update Map -->
        <mxCell id="14" value="Update enforcer map visualization" style="rounded=1;whiteSpace=wrap;html=1;fillColor=#dae8fc;strokeColor=#6c8ebf;" vertex="1" parent="1">
          <mxGeometry x="365" y="1100" width="120" height="60" as="geometry"/>
        </mxCell>
        
        <!-- Still Active? -->
        <mxCell id="15" value="Still active duty?" style="rhombus;whiteSpace=wrap;html=1;fillColor=#fff2cc;strokeColor=#d6b656;" vertex="1" parent="1">
          <mxGeometry x="375" y="1200" width="100" height="100" as="geometry"/>
        </mxCell>
        
        <!-- Wait Interval -->
        <mxCell id="16" value="Wait for location update interval (30 sec)" style="rounded=1;whiteSpace=wrap;html=1;fillColor=#dae8fc;strokeColor=#6c8ebf;" vertex="1" parent="1">
          <mxGeometry x="560" y="1220" width="120" height="60" as="geometry"/>
        </mxCell>
        
        <!-- End -->
        <mxCell id="17" value="End" style="ellipse;whiteSpace=wrap;html=1;fillColor=#f8cecc;strokeColor=#b85450;" vertex="1" parent="1">
          <mxGeometry x="160" y="1220" width="100" height="60" as="geometry"/>
        </mxCell>
        
        <!-- Connections -->
        <mxCell id="18" value="" style="endArrow=classic;html=1;exitX=0.5;exitY=1;exitDx=0;exitDy=0;entryX=0.5;entryY=0;entryDx=0;entryDy=0;" edge="1" parent="1" source="2" target="3">
          <mxGeometry width="50" height="50" relative="1" as="geometry">
            <mxPoint x="400" y="430" as="sourcePoint"/>
            <mxPoint x="450" y="380" as="targetPoint"/>
          </mxGeometry>
        </mxCell>
        
        <mxCell id="19" value="" style="endArrow=classic;html=1;exitX=0.5;exitY=1;exitDx=0;exitDy=0;entryX=0.5;entryY=0;entryDx=0;entryDy=0;" edge="1" parent="1" source="3" target="4">
          <mxGeometry width="50" height="50" relative="1" as="geometry">
            <mxPoint x="400" y="430" as="sourcePoint"/>
            <mxPoint x="450" y="380" as="targetPoint"/>
          </mxGeometry>
        </mxCell>
        
        <mxCell id="20" value="" style="endArrow=classic;html=1;exitX=0.5;exitY=1;exitDx=0;exitDy=0;entryX=0.5;entryY=0;entryDx=0;entryDy=0;" edge="1" parent="1" source="4" target="5">
          <mxGeometry width="50" height="50" relative="1" as="geometry">
            <mxPoint x="400" y="430" as="sourcePoint"/>
            <mxPoint x="450" y="380" as="targetPoint"/>
          </mxGeometry>
        </mxCell>
        
        <mxCell id="21" value="No" style="endArrow=classic;html=1;exitX=0;exitY=0.5;exitDx=0;exitDy=0;entryX=1;entryY=0.5;entryDx=0;entryDy=0;" edge="1" parent="1" source="5" target="6">
          <mxGeometry width="50" height="50" relative="1" as="geometry">
            <mxPoint x="400" y="430" as="sourcePoint"/>
            <mxPoint x="450" y="380" as="targetPoint"/>
          </mxGeometry>
        </mxCell>
        
        <mxCell id="22" value="Yes" style="endArrow=classic;html=1;exitX=0.5;exitY=1;exitDx=0;exitDy=0;entryX=0.5;entryY=0;entryDx=0;entryDy=0;" edge="1" parent="1" source="5" target="7">
          <mxGeometry width="50" height="50" relative="1" as="geometry">
            <mxPoint x="400" y="430" as="sourcePoint"/>
            <mxPoint x="450" y="380" as="targetPoint"/>
          </mxGeometry>
        </mxCell>
        
        <mxCell id="23" value="" style="endArrow=classic;html=1;exitX=0.5;exitY=1;exitDx=0;exitDy=0;entryX=0.5;entryY=0;entryDx=0;entryDy=0;" edge="1" parent="1" source="7" target="8">
          <mxGeometry width="50" height="50" relative="1" as="geometry">
            <mxPoint x="400" y="430" as="sourcePoint"/>
            <mxPoint x="450" y="380" as="targetPoint"/>
          </mxGeometry>
        </mxCell>
        
        <mxCell id="24" value="No" style="endArrow=classic;html=1;exitX=0;exitY=0.5;exitDx=0;exitDy=0;entryX=1;entryY=0.5;entryDx=0;entryDy=0;" edge="1" parent="1" source="8" target="9">
          <mxGeometry width="50" height="50" relative="1" as="geometry">
            <mxPoint x="400" y="530" as="sourcePoint"/>
            <mxPoint x="450" y="480" as="targetPoint"/>
          </mxGeometry>
        </mxCell>
        
        <mxCell id="25" value="Yes" style="endArrow=classic;html=1;exitX=0.5;exitY=1;exitDx=0;exitDy=0;entryX=0.5;entryY=0;entryDx=0;entryDy=0;" edge="1" parent="1" source="8" target="10">
          <mxGeometry width="50" height="50" relative="1" as="geometry">
            <mxPoint x="400" y="530" as="sourcePoint"/>
            <mxPoint x="450" y="480" as="targetPoint"/>
          </mxGeometry>
        </mxCell>
        
        <mxCell id="26" value="" style="endArrow=classic;html=1;exitX=0.5;exitY=1;exitDx=0;exitDy=0;entryX=0.5;entryY=0;entryDx=0;entryDy=0;" edge="1" parent="1" source="10" target="11">
          <mxGeometry width="50" height="50" relative="1" as="geometry">
            <mxPoint x="400" y="830" as="sourcePoint"/>
            <mxPoint x="450" y="780" as="targetPoint"/>
          </mxGeometry>
        </mxCell>
        
        <mxCell id="27" value="" style="endArrow=classic;html=1;exitX=0.5;exitY=1;exitDx=0;exitDy=0;entryX=0.5;entryY=0;entryDx=0;entryDy=0;" edge="1" parent="1" source="11" target="12">
          <mxGeometry width="50" height="50" relative="1" as="geometry">
            <mxPoint x="400" y="830" as="sourcePoint"/>
            <mxPoint x="450" y="780" as="targetPoint"/>
          </mxGeometry>
        </mxCell>
        
        <mxCell id="28" value="" style="endArrow=classic;html=1;exitX=0.5;exitY=1;exitDx=0;exitDy=0;entryX=0.5;entryY=0;entryDx=0;entryDy=0;" edge="1" parent="1" source="12" target="13">
          <mxGeometry width="50" height="50" relative="1" as="geometry">
            <mxPoint x="400" y="830" as="sourcePoint"/>
            <mxPoint x="450" y="780" as="targetPoint"/>
          </mxGeometry>
        </mxCell>
        
        <mxCell id="29" value="" style="endArrow=classic;html=1;exitX=0.5;exitY=1;exitDx=0;exitDy=0;entryX=0.5;entryY=0;entryDx=0;entryDy=0;" edge="1" parent="1" source="13" target="14">
          <mxGeometry width="50" height="50" relative="1" as="geometry">
            <mxPoint x="400" y="830" as="sourcePoint"/>
            <mxPoint x="450" y="780" as="targetPoint"/>
          </mxGeometry>
        </mxCell>
        
        <mxCell id="30" value="" style="endArrow=classic;html=1;exitX=0.5;exitY=1;exitDx=0;exitDy=0;entryX=0.5;entryY=0;entryDx=0;entryDy=0;" edge="1" parent="1" source="14" target="15">
          <mxGeometry width="50" height="50" relative="1" as="geometry">
            <mxPoint x="400" y="830" as="sourcePoint"/>
            <mxPoint x="450" y="780" as="targetPoint"/>
          </mxGeometry>
        </mxCell>
        
        <mxCell id="31" value="No" style="endArrow=classic;html=1;exitX=0;exitY=0.5;exitDx=0;exitDy=0;entryX=1;entryY=0.5;entryDx=0;entryDy=0;" edge="1" parent="1" source="15" target="17">
          <mxGeometry width="50" height="50" relative="1" as="geometry">
            <mxPoint x="400" y="930" as="sourcePoint"/>
            <mxPoint x="450" y="880" as="targetPoint"/>
          </mxGeometry>
        </mxCell>
        
        <mxCell id="32" value="Yes" style="endArrow=classic;html=1;exitX=1;exitY=0.5;exitDx=0;exitDy=0;entryX=0;entryY=0.5;entryDx=0;entryDy=0;" edge="1" parent="1" source="15" target="16">
          <mxGeometry width="50" height="50" relative="1" as="geometry">
            <mxPoint x="400" y="930" as="sourcePoint"/>
            <mxPoint x="450" y="880" as="targetPoint"/>
          </mxGeometry>
        </mxCell>
        
        <mxCell id="33" value="" style="endArrow=classic;html=1;exitX=0.5;exitY=0;exitDx=0;exitDy=0;entryX=1;entryY=0.5;entryDx=0;entryDy=0;" edge="1" parent="1" source="16" target="11">
          <mxGeometry width="50" height="50" relative="1" as="geometry">
            <mxPoint x="400" y="830" as="sourcePoint"/>
            <mxPoint x="450" y="780" as="targetPoint"/>
            <Array as="points">
              <mxPoint x="620" y="830"/>
            </Array>
          </mxGeometry>
        </mxCell>
        
        <mxCell id="34" value="" style="endArrow=classic;html=1;exitX=0.5;exitY=1;exitDx=0;exitDy=0;entryX=0;entryY=0;entryDx=0;entryDy=0;" edge="1" parent="1" source="9" target="17">
          <mxGeometry width="50" height="50" relative="1" as="geometry">
            <mxPoint x="400" y="630" as="sourcePoint"/>
            <mxPoint x="450" y="580" as="targetPoint"/>
            <Array as="points">
              <mxPoint x="220" y="1220"/>
            </Array>
          </mxGeometry>
        </mxCell>
        
        <mxCell id="35" value="" style="endArrow=classic;html=1;exitX=0.5;exitY=1;exitDx=0;exitDy=0;entryX=0;entryY=0;entryDx=0;entryDy=0;" edge="1" parent="1" source="6" target="17">
          <mxGeometry width="50" height="50" relative="1" as="geometry">
            <mxPoint x="400" y="630" as="sourcePoint"/>
            <mxPoint x="450" y="580" as="targetPoint"/>
            <Array as="points">
              <mxPoint x="220" y="420"/>
              <mxPoint x="80" y="420"/>
              <mxPoint x="80" y="1220"/>
            </Array>
          </mxGeometry>
        </mxCell>
      </root>
    </mxGraphModel>
  </diagram>
</mxfile> 